<svg width="15" height="14" viewBox="0 0 15 14" fill="none" xmlns="http://www.w3.org/2000/svg">
<path fill-rule="evenodd" clip-rule="evenodd" d="M6.94835 1.12663C6.9944 0.980602 7.08581 0.853056 7.20929 0.762519C7.33277 0.671983 7.4819 0.623169 7.63502 0.623169C7.78814 0.623169 7.93727 0.671983 8.06075 0.762519C8.18423 0.853056 8.27564 0.980602 8.32169 1.12663L9.56169 4.93996H13.5617C13.7203 4.93397 13.8765 4.98006 14.0064 5.07119C14.1363 5.16232 14.2329 5.29348 14.2812 5.44464C14.3296 5.5958 14.3272 5.75863 14.2743 5.90827C14.2214 6.0579 14.121 6.18611 13.9884 6.2733L10.7417 8.62663L11.9817 12.4466C12.0307 12.5921 12.032 12.7495 11.9852 12.8958C11.9385 13.042 11.8462 13.1695 11.7218 13.2596C11.5975 13.3497 11.4476 13.3977 11.2941 13.3966C11.1405 13.3954 10.9913 13.3452 10.8684 13.2533L7.61502 10.8733L4.36835 13.2333C4.24536 13.3252 4.0962 13.3754 3.94265 13.3766C3.7891 13.3777 3.63921 13.3297 3.51487 13.2396C3.39052 13.1495 3.29824 13.022 3.25149 12.8758C3.20474 12.7295 3.20598 12.5721 3.25502 12.4266L4.49502 8.60663L1.24835 6.2533C1.11574 6.16611 1.01532 6.0379 0.962434 5.88827C0.909546 5.73863 0.9071 5.5758 0.95547 5.42464C1.00384 5.27348 1.10037 5.14232 1.2303 5.05119C1.36023 4.96006 1.51643 4.91397 1.67502 4.91996H5.67502L6.94835 1.12663Z" fill="#FDBC15"/>
</svg>

<svg width="17" height="16" viewBox="0 0 17 16" fill="none" xmlns="http://www.w3.org/2000/svg">
                                    <path fill-rule="evenodd" clip-rule="evenodd" d="M7.94835 2.12663C7.9944 1.9806 8.08581 1.85306 8.20929 1.76252C8.33277 1.67198 8.4819 1.62317 8.63502 1.62317C8.78814 1.62317 8.93727 1.67198 9.06075 1.76252C9.18423 1.85306 9.27564 1.9806 9.32169 2.12663L10.5617 5.93996H14.5617C14.7203 5.93397 14.8765 5.98006 15.0064 6.07119C15.1363 6.16232 15.2329 6.29348 15.2812 6.44464C15.3296 6.5958 15.3272 6.75863 15.2743 6.90827C15.2214 7.0579 15.121 7.18611 14.9884 7.2733L11.7417 9.62663L12.9817 13.4466C13.0307 13.5921 13.032 13.7495 12.9852 13.8958C12.9385 14.042 12.8462 14.1695 12.7218 14.2596C12.5975 14.3497 12.4476 14.3977 12.2941 14.3966C12.1405 14.3954 11.9913 14.3452 11.8684 14.2533L8.61502 11.8733L5.36835 14.2333C5.24536 14.3252 5.0962 14.3754 4.94265 14.3766C4.7891 14.3777 4.63921 14.3297 4.51487 14.2396C4.39052 14.1495 4.29824 14.022 4.25149 13.8758C4.20474 13.7295 4.20598 13.5721 4.25502 13.4266L5.49502 9.60663L2.24835 7.2533C2.11574 7.16611 2.01532 7.0379 1.96243 6.88827C1.90955 6.73863 1.9071 6.5758 1.95547 6.42464C2.00384 6.27348 2.10037 6.14232 2.2303 6.05119C2.36023 5.96006 2.51643 5.91397 2.67502 5.91996H6.67502L7.94835 2.12663Z" fill="#FDBC15"/>
                                </svg>